<svg width="512" height="512" viewBox="0 0 100 100" xmlns="http://www.w3.org/2000/svg">
  <circle cx="50" cy="50" r="50" fill="#39A900" />
  <g fill="white">
    <path d="M50.3 15.7c-4.4 0-8 3.6-8 8s3.6 8 8 8 8-3.6 8-8-3.6-8-8-8zM24 34.1c-1.4 0-2.8.1-4.2.4-.9.2-1.7.6-2.3 1.2-.7.7-.8 1.7-.4 2.5.3.7 1.1 1.3 2 1.6 2 .7 4.1.8 6.2 1.2.4.1.8.2 1 .5.2.3.1.7-.3.9-.7.3-1.5.3-2.3.3-.7 0-1.5-.1-2-.4-.4-.3-.5-.7-.4-1.1l-4.6 0c0 .7.1 1.4.6 2 .4.5 1.1.9 1.9 1.1 1.2.3 2.5.5 3.7.5 1.7 0 3.5 0 5.1-.4 1-.2 1.9-.6 2.6-1.3 1.1-1.1.9-2.9-.6-3.8-.7-.4-1.6-.7-2.5-.9-1.3-.3-2.7-.5-4-.7-.5-.1-1-.2-1.4-.4-.4-.2-.4-.7 0-1 .5-.3 1.3-.3 1.9-.3.7 0 1.4.1 2 .4.3.2.4.5.4.8l4.3 0c0-.6-.1-1.1-.5-1.6-.5-.6-1.3-1-2.1-1.2-1.3-.3-2.7-.4-4.1-.4zm9.4.3l0 10.4 12.7 0 0-2.3-8.3 0 0-2.3 7.2 0 0-2.2-7.2 0 0-1.7 7.7 0 0-2.2zM54.3 34.4c-1.9 0-3.9 0-5.8 0l0 10.4 4.4 0 0-7 6.1 7 6.1 0 0-10.4-4.4 0 0 6.9zM73 34.4c-2.4 3.5-4.8 6.9-7.2 10.4l4.7 0 1.1-1.9 7.2 0 1 1.9 5.2 0-6.9-10.4zm2.3 2.5l2.2 3.8-4.6 0zM13 47.7l0 5.7 21.1-.1c1.1.2 1.7.9 1.5 2.5l-13 22.7 4.2 4 20.1-34.8zM53.3 47.8l19.8 34.6 4.4-3.9-13.1-22.7c-.2-1.6.4-2.3 1.5-2.5l21.1.1 0-5.6zM50 53.5l-18.6 31.8 4.9 2.4 12.4-20.9c.4-.3.9-.5 1.3-.6.5 0 .9.2 1.4.5l12.4 21 5.1-2.7z"/>
  </g>
</svg>